<svg version="1.0" xmlns="http://www.w3.org/2000/svg" viewBox="0 0 94 61">
<defs>
<linearGradient id="a" gradientTransform="rotate(90)">
<stop offset="0%" stop-color="#E80C02"/>
<stop offset="100%" stop-color="#A80C02"/>
</linearGradient>
</defs>
<path d="M1522 1885c-11-23-24-59-28-80-4-22-13-49-19-60-7-11-16-31-20-45s-13-31-19-39c-6-7-18-41-26-75-12-50-18-61-35-59-38 3-110 34-126 55-9 11-19 17-22 12-9-15 11-111 28-138 14-21 15-29 5-41s-10-21-1-42c7-14 14-71 17-125 4-90 3-98-14-98-10 0-38 18-62 40s-48 40-53 40-17 10-28 23l-19 22-21-27c-25-34-43-27-79 31-13 22-35 42-48 46-13 3-41 17-63 30-21 14-43 25-48 25s-14 7-21 15-23 15-37 15c-13 0-37 10-53 22s-32 19-34 17c-3-3 8-31 25-64 23-46 30-72 29-115-1-30 2-65 5-77 5-16 1-24-15-33-17-9-19-14-10-25 14-17 24-54 56-206 5-20 0-29-21-43l-27-18 33-35c19-19 46-41 62-49 15-8 27-23 27-32 0-26 53-74 73-67 15 7 57-26 57-44 0-25-34-41-89-41-31 0-62-5-69-12-12-12-21-14-119-16-29-1-53-6-53-12 0-16 94-59 148-66 37-5 52-11 55-25 3-11 12-19 20-19 9 0 17-10 19-23 3-21 6-22 106-20 105 3 121-4 90-36-11-10-3-12 42-7 30 3 75 8 100 10 25 3 90 10 144 15 55 6 102 9 104 6 7-7-26-244-44-310-10-39-11-62-5-68 22-22 65 143 77 296 7 88 21 106 71 86 25-10 154-28 208-29 11 0 41-8 67-17 53-19 65-15 48 16-14 28 11 39 53 23 20-8 36-8 48-1 13 6 25 6 38-1 32-17 61-12 61 10 0 10 6 23 13 27 8 4 16 16 20 26 5 12 17 17 47 17 22 0 57 9 77 20 21 11 43 20 50 20 18 0 27 21 13 30-7 5-37 11-66 15-29 3-58 13-65 21-9 11-24 13-60 8-67-9-99 1-99 29 0 30 18 47 50 47 25 0 63 30 71 57 2 7 31 34 63 60 33 26 61 54 64 60 2 7-8 18-22 24-35 16-40 36-16 66 11 14 20 38 20 54 0 15 5 31 10 34 6 3 10 15 10 26 0 10 5 28 12 39 10 15 9 22-4 37-27 30-14 136 22 194 17 25 30 53 30 62 0 21-28 22-54 2-11-8-26-15-33-15-8 0-56-21-108-46-63-30-104-58-125-82l-30-37-18 24-19 23-44-28c-24-16-46-31-49-35-15-18-70-41-84-36-21 8-21 49 0 89 10 19 14 42 10 60-3 17 1 45 9 65 12 27 12 39 4 50-9 10-8 18 5 31 9 10 16 33 16 50s5 43 12 57c17 37 2 42-32 10-16-16-33-26-36-22-4 3-16 0-28-8-11-8-32-15-47-15-25 0-27 3-33 61-4 34-14 68-22 76s-14 22-14 31c0 20-39 136-68 202l-19 45zm128-704v-180l48 21c67 30 179 31 219 2 43-32 52-73 52-241l1-153h-102l6 108c8 121-3 199-31 220-23 17-103 12-155-11l-38-16V630h-100v730h100zm-357-142c47-13 106-63 123-106 8-18 14-53 14-78v-45h-322l7-27c19-80 124-116 227-79 37 13 37 13 47-17 6-16 11-31 11-33 0-1-23-10-51-19-37-13-72-16-124-13-84 6-123 24-169 81-26 33-31 48-34 107-5 76 7 123 41 160 64 71 141 94 230 69m-113-71c-27-14-70-73-70-94 0-11 25-14 115-14h115v25c0 14-12 39-27 55-32 36-93 49-133 28" transform="matrix(.03037 0 0 -.03037 1.423 58.656)" fill="url(#a)"/>
<path d="M65.013 38.891c-.638.403-1.075 2.048-.772 3.021.167.504.503.672 1.376.672.94 0 1.208-.168 1.477-.873.47-1.242.403-1.746-.336-2.484s-.94-.772-1.745-.336m-16.517 1.108c-.772.57-.57 1.712.302 1.846 2.283.336 2.182.202 2.182 3.089 0 1.477-.134 2.685-.268 2.685-.168 0-.57-.302-.907-.671-2.45-2.72-8.56-.94-10.641 3.122-1.444 2.887-.101 7.654 2.719 9.534 1.88 1.275 5.438.906 7.687-.772l1.075-.84v2.048h2.182c2.115 0 2.182-.033 2.182-.873 0-.57-.202-.94-.672-1.04-.94-.235-1.074-1.343-1.309-10.44l-.201-7.957-1.847-.1c-1.175-.068-2.08.067-2.484.369m0 8.594c2.149 1.309 2.854 5.37 1.276 7.52-.974 1.342-3.256 2.383-4.7 2.114-2.72-.537-4.666-3.625-3.86-6.244.436-1.477 1.812-3.29 2.853-3.692 1.242-.504 3.357-.37 4.431.302m-37.162-2.854c-1.343.47-2.954 1.545-3.692 2.417-.437.537-.47.47-.638-.738l-.168-1.31-2.619-.1c-2.148-.067-2.618 0-2.82.436-.1.302.068.806.37 1.108.436.47.705.47 1.544.168l1.007-.37v1.713c0 .973.1 3.457.235 5.505l.202 3.794-1.813-.101c-1.578-.067-1.813 0-1.914.604-.168 1.444.302 1.578 4.666 1.544 2.283-.033 4.835-.167 5.64-.302 1.679-.268 2.417-1.074 1.746-1.88-.37-.436-1.142-.537-3.592-.537H6.366l.201-3.458c.202-3.793.403-4.129 3.257-5.64 1.309-.704 2.282-.704 5.136-.134.873.202 1.074.135 1.275-.47.336-1.107-.1-1.947-1.242-2.35-1.342-.47-2.148-.436-3.659.101m71.034 0c-1.98.605-3.122 1.477-4.028 3.022-1.544 2.652-1.51 6.076.067 8.526.705 1.075 1.376 1.578 2.954 2.216 2.854 1.175 3.693 1.276 5.707.873s4.465-2.317 5.438-4.163c.773-1.443.638-5.203-.235-6.882-1.644-3.222-6.009-4.8-9.903-3.592m5.54 2.619c2.584 1.779 3.323 4.431 2.014 7.15-.94 1.947-2.619 2.82-5.405 2.854-2.82 0-4.297-1.377-4.8-4.566-.37-2.182 1.107-5.069 2.987-5.841 1.41-.604 4.062-.37 5.203.403m-65.528-2.25c-1.444.806-1.679 2.518-.336 2.518.302 0 1.544-.302 2.686-.671 1.175-.37 2.417-.671 2.786-.671.873 0 2.585 1.644 2.82 2.719l.201.872-3.558.034c-3.894.034-5.002.403-6.311 2.149-.873 1.174-.94 4.162-.101 5.438 1.343 2.048 5.472 2.417 8.493.738.84-.503 1.578-.872 1.645-.872.034 0 .134.335.202.738.1.705.268.772 2.282.772 1.847 0 2.182-.1 2.283-.638.168-.805-.47-1.208-2.048-1.208h-1.275l.167-1.444c.806-6.411.538-8.66-1.174-10.104-.974-.806-1.243-.873-4.432-.873-2.35.034-3.726.168-4.33.504m7.587 6.982c.436.302.57.772.47 1.746-.101 1.242-.235 1.41-2.115 2.45-1.578.84-2.283 1.075-3.29.94-3.39-.403-3.995-3.96-.907-5.203 1.242-.47 5.137-.436 5.842.067m30.548-6.647c-.302.772.168 1.175 1.31 1.175.604 0 1.678.1 2.383.235l1.31.202-.236 4.062c-.335 5.874-.1 5.471-3.39 5.74-2.753.235-3.424.57-2.887 1.444.167.268 2.383.436 7.083.47 6.445.1 6.882.067 6.982-.538.202-1.04-.335-1.242-2.484-.839-1.074.168-2.215.403-2.517.504-.47.134-.571-.504-.773-5.304-.134-3.022-.335-5.976-.436-6.58l-.168-1.074h-2.988c-2.316 0-3.054.1-3.189.503" fill="#003DA5"/>
</svg>
